<svg xmlns="http://www.w3.org/2000/svg" xmlns:xlink="http://www.w3.org/1999/xlink" version="1.0" width="200pt" height="200pt" viewBox="0 0 200 200" preserveAspectRatio="xMinYMin meet"><rect id="svgEditorBackground" x="0" y="0" width="200" height="200" style="fill: none; stroke: none;"/><defs id="svgEditorDefs"><marker id="arrow10-8-right" markerHeight="8" markerUnits="strokeWidth" markerWidth="10" orient="auto" refX="-3" refY="0" viewBox="-15 -5 20 20"><path d="M-15,-5l15,5l-15,5Z" fill="black"/></marker><marker id="arrow15-12-left" markerHeight="12" markerUnits="strokeWidth" markerWidth="15" orient="auto" refX="3" refY="0" viewBox="0 -5 20 20"><path d="M15,-5l-15,5l15,5Z" fill="black"/></marker><marker id="arrow15-12-right" markerHeight="12" markerUnits="strokeWidth" markerWidth="15" orient="auto" refX="-3" refY="0" viewBox="-15 -5 20 20"><path d="M-15,-5l15,5l-15,5Z" fill="black"/></marker></defs>
<metadata>
Created by potrace 1.16, written by Peter Selinger 2001-2019
</metadata>

<path d="M384.3,755.9l0,-510l285,0l285,0l0,510l0,510l-285,0l-285,0l0,-510Z" transform="matrix(0.10633 0 0 -0.10633 -40.0701 173.232)" style="fill:#9D5BA6;"/><text style="fill:#888C8C;font-family:Arial;font-size:43.2px;font-style:normal;font-weight:bold" x="188.754" y="69.313" id="e1_texte" transform="matrix(1.15129 0 0 1.0633 11.2644 -39.4288)"><tspan x="-11.4914">inter</tspan></text><text style="fill:rgb(136, 140, 140);font-family:Arial;font-style:normal;font-weight:bolder;font-size:24.00px" x="122.298" y="122.342" id="e2_texte" transform="matrix(1.34058 0 0 1.34058 -39.6127 -19.0501)"/><g id="_Task_PathTriangleDigitTask"/><g id="e18_group" transform="matrix(1.34058 0 0 1.34058 95.608 -139.652)"><path d="M296.1,-143.6l0,-510l285,0l285,0l0,510l0,510l-285,0l-285,0l0,-510Z" transform="matrix(0.0779453 0 0 -0.0520299 -18.175 180.31)" id="e2_path" style="fill:#888C8C"/><path d="M3117.1,824.1l0,-510l285,0l285,0l0,510l0,510l-285,0l-285,0l0,-510Z" transform="matrix(0 0.0516263 0.0981149 0 -53.4949 -28.0505)" style="fill:#888C8C" id="e1_path"/></g><text style="font-family:Arial;font-style:normal;font-weight:normal;font-size:43.2px;fill:#9D5BA6" x="180.709" y="65.0371" id="e19_texte" transform="matrix(1.15129 0 0 1.0633 -99.5896 -34.4891)">tech</text></svg>